# xmcd CD database file
#
# Track frame offsets:
#	182
#	15980
#	35182
#	48230
#	61732
#	71480
#	80635
#	98632
#	119107
#	128557
#	142210
#	150005
#	167407
#	182857
#	195007
#	210982
#	220132
#	235732
#	253880
#	261455
#
# Disc length: 3702 seconds
#
# Revision: 0
# Processed by: cddbd v1.5.1PL2 Copyright (c) Steve Scherf et al.
# Submitted via: CDex 1.70beta1
#
DISCID=110e7414
DTITLE=Coad Sisters - Talk Of the Town 
DYEAR=1998
DGENRE=Country
TTITLE0=Talk Of the Town 
TTITLE1=Bushman Can't Survive 
TTITLE2=Indian Lovecall 
TTITLE3=Look At Me Now 
TTITLE4=Sweetheart Yodel 
TTITLE5=Lonely Robin (Instrumental) 
TTITLE6=Lovesick Blues 
TTITLE7=If I had Wings 
TTITLE8=Little High Horse 
TTITLE9=Only You 
TTITLE10=Old Spinning Wheel (Instrumental) 
TTITLE11=I Love You because 
TTITLE12=Swiss Mountaineer 
TTITLE13=When You Walked By 
TTITLE14=Johnny B Goode 
TTITLE15=Jigs (Instrumentals) 
TTITLE16=Flower Song 
TTITLE17=Tennesee Walz 
TTITLE18=Blue Blue Day
TTITLE19=A Closer Walk With Thee
EXTD=YEAR: 1998
EXTT0=
EXTT1=
EXTT2=
EXTT3=
EXTT4=
EXTT5=
EXTT6=
EXTT7=
EXTT8=
EXTT9=
EXTT10=
EXTT11=
EXTT12=
EXTT13=
EXTT14=
EXTT15=
EXTT16=
EXTT17=
EXTT18=
EXTT19=
PLAYORDER=
